<svg width="48" height="48" viewBox="0 0 48 48" fill="none" xmlns="http://www.w3.org/2000/svg">
<path d="M14.3998 12.24V13.74C14.9333 13.74 15.4267 13.4566 15.6955 12.9958L14.3998 12.24ZM17.7598 6.47998V4.97998C17.2263 4.97998 16.733 5.26335 16.4641 5.72417L17.7598 6.47998ZM30.2398 6.47998L31.5355 5.72417C31.2667 5.26335 30.7733 4.97998 30.2398 4.97998V6.47998ZM33.5998 12.24L32.3041 12.9958C32.5729 13.4566 33.0663 13.74 33.5998 13.74V12.24ZM6.2998 36.72V17.04H3.2998V36.72H6.2998ZM9.5998 13.74H14.3998V10.74H9.5998V13.74ZM15.6955 12.9958L19.0555 7.23579L16.4641 5.72417L13.1041 11.4842L15.6955 12.9958ZM17.7598 7.97998H30.2398V4.97998H17.7598V7.97998ZM28.9441 7.23579L32.3041 12.9958L34.8955 11.4842L31.5355 5.72417L28.9441 7.23579ZM33.5998 13.74H38.3998V10.74H33.5998V13.74ZM41.6998 17.04V36.72H44.6998V17.04H41.6998ZM41.6998 36.72C41.6998 38.5425 40.2223 40.02 38.3998 40.02V43.02C41.8792 43.02 44.6998 40.1994 44.6998 36.72H41.6998ZM38.3998 13.74C40.2223 13.74 41.6998 15.2174 41.6998 17.04H44.6998C44.6998 13.5606 41.8792 10.74 38.3998 10.74V13.74ZM6.2998 17.04C6.2998 15.2174 7.77726 13.74 9.5998 13.74V10.74C6.12041 10.74 3.2998 13.5606 3.2998 17.04H6.2998ZM9.5998 40.02C7.77727 40.02 6.2998 38.5425 6.2998 36.72H3.2998C3.2998 40.1994 6.12041 43.02 9.5998 43.02V40.02ZM29.6998 25.68C29.6998 28.828 27.1478 31.38 23.9998 31.38V34.38C28.8047 34.38 32.6998 30.4849 32.6998 25.68H29.6998ZM23.9998 31.38C20.8518 31.38 18.2998 28.828 18.2998 25.68H15.2998C15.2998 30.4849 19.1949 34.38 23.9998 34.38V31.38ZM18.2998 25.68C18.2998 22.532 20.8518 19.98 23.9998 19.98V16.98C19.1949 16.98 15.2998 20.8751 15.2998 25.68H18.2998ZM23.9998 19.98C27.1478 19.98 29.6998 22.532 29.6998 25.68H32.6998C32.6998 20.8751 28.8047 16.98 23.9998 16.98V19.98ZM38.3998 40.02H9.5998V43.02H38.3998V40.02Z" fill="white"/>
</svg>
