<svg width="330" height="381" viewBox="0 0 330 381" fill="none" xmlns="http://www.w3.org/2000/svg">
<circle cx="165" cy="216" r="165" fill="#121212"/>
<circle cx="165" cy="216" r="164" stroke="#CCCCCC" stroke-opacity="0.4" stroke-width="2"/>
<path d="M59 294.498V208.498C59 178.498 59 179.498 73.5 179.498C75.4783 179.467 77.6616 179.441 80 179.421V128C80 126 82 124 84 124H254.5C257 124 257 125.5 257 127.5V139.998H265.5C275 139.998 273.5 139.498 273.5 151.498V197.998V294.498C273.5 307 273.5 310.498 256.5 310.498H73.5C59 310.498 59 310.498 59 294.498Z" fill="#222222"/>
<path d="M257 139.998H265.5C275 139.998 273.5 139.498 273.5 151.498V197.998V294.498C273.5 307 273.5 310.498 256.5 310.498H73.5C59 310.498 59 310.498 59 294.498V208.498C59 178.498 59 179.498 73.5 179.498C75.4783 179.467 77.6616 179.441 80 179.421M257 139.998H211.5C202.5 139.998 202.5 140 197 143.998C192.181 147.5 174 165.164 165.5 173.498C159 179.498 159.5 179.498 146.5 179.498C140.603 179.498 102.878 179.223 80 179.421M257 139.998V127.5C257 125.5 257 124 254.5 124H84C82 124 80 126 80 128V179.421" stroke="#CCCCCC" stroke-opacity="0.6" stroke-width="3"/>
<path d="M81.5 178.003V130.503C81.5 127.351 81.5 125.503 84.5 125.503H253.847H253.856C255.348 125.503 255.5 125.503 255.5 127V138.503L205.243 138.503C202.856 138.503 198.5 140.503 196 143.003L164.5 172.503C161.5 175.003 160 178.003 153.5 178.003H81.5Z" fill="#1D1C1C"/>
<circle cx="140.5" cy="227.5" r="10.5" fill="#CCCCCC"/>
<circle cx="140.5" cy="227.5" r="8.5" stroke="#CCCCCC" stroke-opacity="0.6" stroke-width="4"/>
<circle cx="191.5" cy="227.5" r="10.5" fill="#CCCCCC"/>
<circle cx="191.5" cy="227.5" r="8.5" stroke="#CCCCCC" stroke-opacity="0.6" stroke-width="4"/>
<rect x="157" y="250" width="18" height="5" fill="#D9D9D9"/>
<path d="M123.5 179.158C123.5 177.158 128.5 134.158 102 115.158C80.8 99.9578 64.8333 100.158 59.5 102.158" stroke="#CCCCCC" stroke-opacity="0.5" stroke-width="2" stroke-dasharray="4 4"/>
<ellipse cx="54.3274" cy="114.167" rx="3" ry="6.5" transform="rotate(163.811 54.3274 114.167)" fill="#D9D9D9" fill-opacity="0.3"/>
<ellipse cx="50.3858" cy="96.1544" rx="3" ry="6.5" transform="rotate(167.391 50.3858 96.1544)" fill="#D9D9D9" fill-opacity="0.3"/>
<ellipse cx="51.4309" cy="104.846" rx="5.5" ry="4.5" transform="rotate(155.128 51.4309 104.846)" fill="#A7A7A7"/>
<path d="M151.421 175.158C134.883 146.158 151.954 103.658 170.092 77.1581C176.493 68.7581 188.251 59.891 193.03 56.1581C199.432 51.1586 210.561 47.9444 214.369 48.6583C219.704 49.6585 223.971 51.6586 227.706 57.6582C229.573 60.6586 230.053 63.1583 229.306 66.6584C228.559 70.1584 227.172 73.1584 225.038 75.6584C221.197 80.1586 214.369 82.6584 208.501 82.6584C204.233 82.6584 198.899 79.1586 196.231 75.1586C193.564 71.1586 191.84 64.157 191.43 61.657C190.363 55.157 192.433 51.1182 193.03 49.157C194.097 45.6555 199.202 36.9204 202.099 34.657C206.58 31.157 215.436 26.057 219.17 24.657C221.837 23.657 245.392 16.6332 246.91 16.1585C251.711 14.657 261.924 14.1582 264.124 14.1579C266.648 14.1577 289.644 14.1576 291.331 14.1577C295.065 14.1579 302.39 14.1585 304.524 15.1585" stroke="#CCCCCC" stroke-opacity="0.5" stroke-width="2" stroke-dasharray="6 6"/>
<ellipse cx="3.19449" cy="6.51451" rx="3.19449" ry="6.51451" transform="matrix(0.970438 0.233739 -0.264959 0.966375 314.426 0.631592)" fill="#D9D9D9" fill-opacity="0.3"/>
<ellipse cx="3.19022" cy="6.52431" rx="3.19022" ry="6.52431" transform="matrix(0.954245 0.290469 -0.328332 0.947555 308.735 18.0759)" fill="#D9D9D9" fill-opacity="0.3"/>
<ellipse cx="5.86454" cy="4.5031" rx="5.86454" ry="4.5031" transform="matrix(0.995607 0.0936256 -0.106439 0.994319 308.039 12.1448)" fill="#A7A7A7"/>
</svg>
