<svg width="25" height="24" viewBox="0 0 25 24" fill="none" xmlns="http://www.w3.org/2000/svg">
<path d="M14.8844 7.79979V5.69979C14.8844 5.14284 14.6613 4.60869 14.2641 4.21487C13.867 3.82104 13.3284 3.59979 12.7667 3.59979H5.35495C4.79332 3.59979 4.25468 3.82104 3.85755 4.21487C3.46041 4.60869 3.2373 5.14284 3.2373 5.69979V18.2998C3.2373 18.8567 3.46041 19.3909 3.85755 19.7847C4.25468 20.1785 4.79332 20.3998 5.35495 20.3998H12.7667C13.3284 20.3998 13.867 20.1785 14.2641 19.7847C14.6613 19.3909 14.8844 18.8567 14.8844 18.2998V16.1998" stroke="white" stroke-width="2" stroke-linecap="round" stroke-linejoin="round"/>
<path d="M20.9434 12.15L8.23748 12.15M8.23748 12.15L11.4139 15.3M8.23748 12.15L11.4139 9.00005" stroke="white" stroke-width="2" stroke-linecap="round" stroke-linejoin="round"/>
</svg>
