<svg width="64" height="25" viewBox="0 0 64 25" fill="none" xmlns="http://www.w3.org/2000/svg">
<g clip-path="url(#clip0_95_39)">
<path d="M12.2857 22.0401C11.5455 22.0401 10.9091 21.9433 10.3766 21.7494C9.84418 21.56 9.40045 21.309 9.04548 20.9963C8.69482 20.6879 8.41561 20.3577 8.20781 20.0052L9.42859 19.1331C9.56712 19.3181 9.74245 19.5296 9.95456 19.7674C10.1667 20.0097 10.4567 20.2188 10.8247 20.395C11.197 20.5757 11.684 20.6659 12.2857 20.6659C13.0909 20.6659 13.7554 20.4677 14.2792 20.0713C14.803 19.675 15.065 19.0539 15.065 18.2082V16.1469H14.935C14.8226 16.3319 14.6623 16.5609 14.4546 16.834C14.2511 17.1027 13.9567 17.3427 13.5714 17.5542C13.1905 17.7611 12.6753 17.8646 12.026 17.8646C11.2208 17.8646 10.4978 17.6709 9.85716 17.2832C9.22081 16.8956 8.71648 16.3319 8.34418 15.592C7.97621 14.852 7.79224 13.9534 7.79224 12.8964C7.79224 11.8569 7.97188 10.9518 8.33119 10.181C8.69049 9.40578 9.19049 8.80677 9.83119 8.38393C10.4719 7.9567 11.2121 7.74308 12.052 7.74308C12.7013 7.74308 13.2165 7.85319 13.5974 8.07343C13.9827 8.28924 14.2771 8.5359 14.4806 8.81338C14.6883 9.08645 14.8484 9.31109 14.961 9.48726H15.1169V7.87521H16.5974V18.3139C16.5974 19.186 16.4026 19.8952 16.013 20.4412C15.6277 20.9918 15.1083 21.3949 14.4546 21.6504C13.8052 21.9101 13.0823 22.0401 12.2857 22.0401ZM12.2338 16.4641C12.8485 16.4641 13.368 16.3209 13.7922 16.0345C14.2165 15.7482 14.539 15.3364 14.7597 14.7991C14.9806 14.2618 15.0909 13.6187 15.0909 12.8699C15.0909 12.1388 14.9827 11.4935 14.7663 10.9342C14.5497 10.3748 14.2295 9.93652 13.8052 9.6194C13.381 9.30228 12.8572 9.14372 12.2338 9.14372C11.5844 9.14372 11.0433 9.31109 10.6104 9.64582C10.1818 9.98058 9.85933 10.4298 9.64288 10.9936C9.43076 11.5574 9.32469 12.1828 9.32469 12.8699C9.32469 13.5746 9.43292 14.1979 9.64938 14.7396C9.87015 15.277 10.1948 15.6998 10.6234 16.0081C11.0563 16.312 11.5931 16.4641 12.2338 16.4641ZM20.935 4.49255V18.0232H19.4026V4.49255H20.935ZM27.9237 18.2347C26.9627 18.2347 26.1337 18.0188 25.4367 17.5872C24.744 17.1511 24.2094 16.5433 23.8329 15.7638C23.4604 14.9797 23.2743 14.068 23.2743 13.0285C23.2743 11.989 23.4604 11.0729 23.8329 10.2801C24.2094 9.48286 24.7333 8.86183 25.4043 8.41697C26.0796 7.96771 26.8674 7.74308 27.7679 7.74308C28.2873 7.74308 28.8003 7.83117 29.3069 8.00735C29.8133 8.18353 30.2743 8.46982 30.69 8.86623C31.1056 9.25824 31.4367 9.77796 31.6834 10.4254C31.9301 11.0729 32.0536 11.8701 32.0536 12.8171V13.4778H24.3653V12.13H30.4951C30.4951 11.5574 30.3826 11.0465 30.1574 10.5972C29.9367 10.1479 29.6207 9.79338 29.2094 9.53351C28.8024 9.27364 28.322 9.14372 27.7679 9.14372C27.1574 9.14372 26.6293 9.29787 26.1834 9.60619C25.7419 9.9101 25.402 10.3065 25.164 10.7954C24.9259 11.2843 24.8069 11.8084 24.8069 12.3678V13.2663C24.8069 14.0327 24.9367 14.6824 25.1964 15.2154C25.4604 15.7438 25.8263 16.1469 26.2939 16.4244C26.7614 16.6975 27.3047 16.834 27.9237 16.834C28.3263 16.834 28.69 16.7767 29.0146 16.6622C29.3436 16.5433 29.6272 16.3671 29.8653 16.1337C30.1033 15.8959 30.2873 15.6007 30.4171 15.2484L31.8977 15.6712C31.7419 16.1821 31.48 16.6313 31.112 17.019C30.744 17.4021 30.2896 17.7017 29.7484 17.9175C29.2073 18.1289 28.599 18.2347 27.9237 18.2347ZM38.5666 18.2347C37.6056 18.2347 36.7766 18.0188 36.0796 17.5872C35.3869 17.1511 34.8523 16.5433 34.4757 15.7638C34.1033 14.9797 33.9171 14.068 33.9171 13.0285C33.9171 11.989 34.1033 11.0729 34.4757 10.2801C34.8523 9.48286 35.3761 8.86183 36.0471 8.41697C36.7224 7.96771 37.5103 7.74308 38.4107 7.74308C38.9301 7.74308 39.4431 7.83117 39.9497 8.00735C40.4561 8.18353 40.9171 8.46982 41.3329 8.86623C41.7484 9.25824 42.0796 9.77796 42.3263 10.4254C42.573 11.0729 42.6964 11.8701 42.6964 12.8171V13.4778H35.0081V12.13H41.138C41.138 11.5574 41.0254 11.0465 40.8003 10.5972C40.5796 10.1479 40.2636 9.79338 39.8523 9.53351C39.4453 9.27364 38.9649 9.14372 38.4107 9.14372C37.8003 9.14372 37.2721 9.29787 36.8263 9.60619C36.3847 9.9101 36.0449 10.3065 35.8069 10.7954C35.5687 11.2843 35.4497 11.8084 35.4497 12.3678V13.2663C35.4497 14.0327 35.5796 14.6824 35.8393 15.2154C36.1033 15.7438 36.4691 16.1469 36.9367 16.4244C37.4043 16.6975 37.9476 16.834 38.5666 16.834C38.9691 16.834 39.3329 16.7767 39.6574 16.6622C39.9864 16.5433 40.27 16.3671 40.5081 16.1337C40.7461 15.8959 40.9301 15.6007 41.06 15.2484L42.5406 15.6712C42.3847 16.1821 42.1229 16.6313 41.7549 17.019C41.3869 17.4021 40.9324 17.7017 40.3913 17.9175C39.8501 18.1289 39.2419 18.2347 38.5666 18.2347ZM46.56 11.9186V18.0232H45.0276V7.87521H46.5081V9.46084H46.638C46.8717 8.94552 47.2267 8.53149 47.7029 8.21878C48.1791 7.90164 48.7938 7.74308 49.5471 7.74308C50.2224 7.74308 50.8133 7.88402 51.3199 8.16591C51.8263 8.4434 52.2203 8.86623 52.5016 9.43442C52.783 9.99819 52.9237 10.7117 52.9237 11.575V18.0232H51.3913V11.6807C51.3913 10.8835 51.1877 10.2625 50.7808 9.81761C50.3739 9.36834 49.8154 9.14372 49.1056 9.14372C48.6163 9.14372 48.1791 9.25162 47.7939 9.46745C47.4129 9.68327 47.112 9.99819 46.8913 10.4122C46.6704 10.8262 46.56 11.3284 46.56 11.9186Z" fill="url(#paint0_linear_95_39)"/>
<path d="M54.4286 1.88953L55.3546 4.43572L57.8571 5.3779L55.3546 6.32008L54.4286 8.86627L53.5026 6.32008L51 5.3779L53.5026 4.43572L54.4286 1.88953Z" fill="url(#paint1_radial_95_39)"/>
<path d="M60.5714 0L61.4974 2.54619L64 3.48837L61.4974 4.43055L60.5714 6.97674L59.6454 4.43055L57.1428 3.48837L59.6454 2.54619L60.5714 0Z" fill="url(#paint2_radial_95_39)"/>
<path d="M3.42857 18.0233L4.3546 20.5695L6.85714 21.5117L4.3546 22.4538L3.42857 25.0001L2.50254 22.4538L0 21.5117L2.50254 20.5695L3.42857 18.0233Z" fill="url(#paint3_radial_95_39)"/>
</g>
<defs>
<linearGradient id="paint0_linear_95_39" x1="30.4949" y1="-4.84977e-05" x2="30.8013" y2="22.5289" gradientUnits="userSpaceOnUse">
<stop stop-color="#00843D"/>
<stop offset="1" stop-color="#0EFF7E"/>
</linearGradient>
<radialGradient id="paint1_radial_95_39" cx="0" cy="0" r="1" gradientUnits="userSpaceOnUse" gradientTransform="translate(54.4286 5.3779) rotate(90) scale(3.48837 3.42857)">
<stop stop-color="#008BD9"/>
<stop offset="1" stop-color="#26B1FF"/>
</radialGradient>
<radialGradient id="paint2_radial_95_39" cx="0" cy="0" r="1" gradientUnits="userSpaceOnUse" gradientTransform="translate(60.5714 3.48837) rotate(90) scale(3.48837 3.42857)">
<stop stop-color="#008BD9"/>
<stop offset="1" stop-color="#26B1FF"/>
</radialGradient>
<radialGradient id="paint3_radial_95_39" cx="0" cy="0" r="1" gradientUnits="userSpaceOnUse" gradientTransform="translate(3.42857 21.5117) rotate(90) scale(3.48837 3.42857)">
<stop stop-color="#008BD9"/>
<stop offset="1" stop-color="#26B1FF"/>
</radialGradient>
<clipPath id="clip0_95_39">
<rect width="64" height="25" fill="white"/>
</clipPath>
</defs>
</svg>
