<svg width="32" height="19" viewBox="0 0 32 19" fill="none" xmlns="http://www.w3.org/2000/svg">
<path d="M13.9843 15.5361C13.272 15.5361 12.6597 15.4472 12.1473 15.2693C11.6349 15.0955 11.2079 14.8651 10.8664 14.5782C10.5289 14.2951 10.2602 13.992 10.0603 13.6686L11.235 12.8682C11.3683 13.038 11.537 13.2321 11.7411 13.4503C11.9453 13.6727 12.2244 13.8647 12.5784 14.0263C12.9367 14.1921 13.4053 14.275 13.9843 14.275C14.7592 14.275 15.3986 14.093 15.9026 13.7293C16.4066 13.3655 16.6588 12.7955 16.6588 12.0194V10.1277H16.5337C16.4255 10.2975 16.2712 10.5076 16.0714 10.7582C15.8756 11.0049 15.5923 11.2251 15.2215 11.4192C14.855 11.6091 14.3593 11.7041 13.7344 11.7041C12.9596 11.7041 12.2639 11.5263 11.6474 11.1705C11.0351 10.8148 10.5498 10.2975 10.1915 9.61838C9.83743 8.93928 9.6604 8.11465 9.6604 7.14453C9.6604 6.19057 9.83326 5.3599 10.179 4.65252C10.5248 3.94109 11.0059 3.39135 11.6224 3.0033C12.2389 2.61121 12.9513 2.41516 13.7594 2.41516C14.3842 2.41516 14.88 2.51622 15.2465 2.71833C15.6173 2.9164 15.9005 3.14276 16.0964 3.39742C16.2963 3.64802 16.4504 3.85418 16.5587 4.01587H16.7087V2.53643H18.1334V12.1164C18.1334 12.9168 17.9459 13.5676 17.571 14.0687C17.2002 14.574 16.7004 14.9439 16.0714 15.1784C15.4465 15.4168 14.7508 15.5361 13.9843 15.5361ZM13.9344 10.4187C14.5259 10.4187 15.0258 10.2873 15.434 10.0246C15.8422 9.76178 16.1526 9.38388 16.365 8.89073C16.5775 8.3976 16.6836 7.80745 16.6836 7.12028C16.6836 6.44927 16.5796 5.85709 16.3713 5.34373C16.1629 4.83037 15.8547 4.42817 15.4465 4.13713C15.0383 3.8461 14.5342 3.70058 13.9344 3.70058C13.3095 3.70058 12.7888 3.85418 12.3722 4.16139C11.9598 4.4686 11.6495 4.8809 11.4412 5.3983C11.2371 5.91571 11.135 6.48969 11.135 7.12028C11.135 7.76702 11.2392 8.33899 11.4475 8.83617C11.6599 9.32932 11.9723 9.71736 12.3847 10.0003C12.8013 10.2792 13.3178 10.4187 13.9344 10.4187Z" fill="url(#paint0_linear_99_48)"/>
<path d="M22.7898 1.73413L23.6809 4.07087L26.089 4.93554L23.6809 5.80022L22.7898 8.13695L21.8987 5.80022L19.4906 4.93554L21.8987 4.07087L22.7898 1.73413Z" fill="url(#paint1_radial_99_48)"/>
<path d="M28.7008 0L29.5919 2.33674L32 3.20141L29.5919 4.06609L28.7008 6.40282L27.8098 4.06609L25.4016 3.20141L27.8098 2.33674L28.7008 0Z" fill="url(#paint2_radial_99_48)"/>
<path d="M3.2992 11.7103L4.19029 14.0471L6.5984 14.9117L4.19029 15.7764L3.2992 18.1131L2.40811 15.7764L0 14.9117L2.40811 14.0471L3.2992 11.7103Z" fill="url(#paint3_radial_99_48)"/>
<defs>
<linearGradient id="paint0_linear_99_48" x1="31.9925" y1="-1.02008" x2="32.4374" y2="15.5002" gradientUnits="userSpaceOnUse">
<stop stop-color="#00602C"/>
<stop offset="1" stop-color="#7AFFAF"/>
</linearGradient>
<radialGradient id="paint1_radial_99_48" cx="0" cy="0" r="1" gradientUnits="userSpaceOnUse" gradientTransform="translate(22.7898 4.93554) rotate(90) scale(3.20141 3.2992)">
<stop stop-color="#008BD9"/>
<stop offset="1" stop-color="#26B1FF"/>
</radialGradient>
<radialGradient id="paint2_radial_99_48" cx="0" cy="0" r="1" gradientUnits="userSpaceOnUse" gradientTransform="translate(28.7008 3.20141) rotate(90) scale(3.20141 3.2992)">
<stop stop-color="#008BD9"/>
<stop offset="1" stop-color="#26B1FF"/>
</radialGradient>
<radialGradient id="paint3_radial_99_48" cx="0" cy="0" r="1" gradientUnits="userSpaceOnUse" gradientTransform="translate(3.2992 14.9117) rotate(90) scale(3.20141 3.2992)">
<stop stop-color="#008BD9"/>
<stop offset="1" stop-color="#26B1FF"/>
</radialGradient>
</defs>
</svg>
