<svg width="448" height="173" viewBox="0 0 448 173" fill="none" xmlns="http://www.w3.org/2000/svg">
<g clip-path="url(#clip0_60_40)">
<path d="M86 152.306C80.8182 152.306 76.3636 151.64 72.6364 150.306C68.9091 149.003 65.803 147.276 63.3182 145.125C60.8636 143.003 58.9091 140.731 57.4545 138.306L66 132.306C66.9697 133.579 68.197 135.034 69.6818 136.67C71.1667 138.337 73.197 139.776 75.7727 140.988C78.3788 142.231 81.7879 142.852 86 142.852C91.6364 142.852 96.2879 141.488 99.9545 138.761C103.621 136.034 105.455 131.761 105.455 125.943V111.761H104.545C103.758 113.034 102.636 114.609 101.182 116.488C99.7576 118.337 97.697 119.988 95 121.443C92.3333 122.867 88.7273 123.579 84.1818 123.579C78.5455 123.579 73.4848 122.246 69 119.579C64.5455 116.912 61.0152 113.034 58.4091 107.943C55.8333 102.852 54.5455 96.67 54.5455 89.3973C54.5455 82.2458 55.803 76.0185 58.3182 70.7155C60.8333 65.3821 64.3333 61.2609 68.8182 58.3518C73.303 55.4124 78.4848 53.9427 84.3636 53.9427C88.9091 53.9427 92.5152 54.7003 95.1818 56.2155C97.8788 57.7003 99.9394 59.3973 101.364 61.3064C102.818 63.1851 103.939 64.7306 104.727 65.9427H105.818V54.8518H116.182V126.67C116.182 132.67 114.818 137.549 112.091 141.306C109.394 145.094 105.758 147.867 101.182 149.625C96.6364 151.412 91.5758 152.306 86 152.306ZM85.6364 113.943C89.9394 113.943 93.5758 112.958 96.5455 110.988C99.5152 109.018 101.773 106.185 103.318 102.488C104.864 98.7912 105.636 94.367 105.636 89.2155C105.636 84.1852 104.879 79.7458 103.364 75.8973C101.848 72.0488 99.6061 69.0336 96.6364 66.8518C93.6667 64.67 90 63.5791 85.6364 63.5791C81.0909 63.5791 77.303 64.7306 74.2727 67.0336C71.2727 69.3367 69.0152 72.4276 67.5 76.3064C66.0152 80.1852 65.2727 84.4882 65.2727 89.2155C65.2727 94.0639 66.0303 98.3518 67.5455 102.079C69.0909 105.776 71.3636 108.685 74.3636 110.806C77.3939 112.897 81.1515 113.943 85.6364 113.943ZM146.545 31.5791V124.67H135.818V31.5791H146.545ZM195.466 126.125C188.739 126.125 182.936 124.64 178.057 121.67C173.208 118.67 169.466 114.488 166.83 109.125C164.223 103.731 162.92 97.4579 162.92 90.3064C162.92 83.1548 164.223 76.8518 166.83 71.3973C169.466 65.9124 173.133 61.6397 177.83 58.5791C182.557 55.4882 188.072 53.9427 194.375 53.9427C198.011 53.9427 201.602 54.5488 205.148 55.7609C208.693 56.973 211.92 58.9427 214.83 61.67C217.739 64.367 220.057 67.9427 221.784 72.3973C223.511 76.8518 224.375 82.3367 224.375 88.8518V93.3973H170.557V84.1245H213.466C213.466 80.1851 212.678 76.67 211.102 73.5791C209.557 70.4882 207.345 68.0488 204.466 66.2609C201.617 64.473 198.254 63.5791 194.375 63.5791C190.102 63.5791 186.405 64.6397 183.284 66.7609C180.193 68.8518 177.814 71.5791 176.148 74.9427C174.481 78.3064 173.648 81.9124 173.648 85.7609V91.9427C173.648 97.2155 174.557 101.685 176.375 105.352C178.223 108.988 180.784 111.761 184.057 113.67C187.33 115.549 191.133 116.488 195.466 116.488C198.284 116.488 200.83 116.094 203.102 115.306C205.405 114.488 207.39 113.276 209.057 111.67C210.723 110.034 212.011 108.003 212.92 105.579L223.284 108.488C222.193 112.003 220.36 115.094 217.784 117.761C215.208 120.397 212.027 122.458 208.239 123.943C204.451 125.397 200.193 126.125 195.466 126.125ZM269.966 126.125C263.239 126.125 257.436 124.64 252.557 121.67C247.708 118.67 243.966 114.488 241.33 109.125C238.723 103.731 237.42 97.4579 237.42 90.3064C237.42 83.1548 238.723 76.8518 241.33 71.3973C243.966 65.9124 247.633 61.6397 252.33 58.5791C257.057 55.4882 262.572 53.9427 268.875 53.9427C272.511 53.9427 276.102 54.5488 279.648 55.7609C283.193 56.973 286.42 58.9427 289.33 61.67C292.239 64.367 294.557 67.9427 296.284 72.3973C298.011 76.8518 298.875 82.3367 298.875 88.8518V93.3973H245.057V84.1245H287.966C287.966 80.1851 287.178 76.67 285.602 73.5791C284.057 70.4882 281.845 68.0488 278.966 66.2609C276.117 64.473 272.754 63.5791 268.875 63.5791C264.602 63.5791 260.905 64.6397 257.784 66.7609C254.693 68.8518 252.314 71.5791 250.648 74.9427C248.981 78.3064 248.148 81.9124 248.148 85.7609V91.9427C248.148 97.2155 249.057 101.685 250.875 105.352C252.723 108.988 255.284 111.761 258.557 113.67C261.83 115.549 265.633 116.488 269.966 116.488C272.784 116.488 275.33 116.094 277.602 115.306C279.905 114.488 281.89 113.276 283.557 111.67C285.223 110.034 286.511 108.003 287.42 105.579L297.784 108.488C296.693 112.003 294.86 115.094 292.284 117.761C289.708 120.397 286.527 122.458 282.739 123.943C278.951 125.397 274.693 126.125 269.966 126.125ZM325.92 82.67V124.67H315.193V54.8518H325.557V65.7609H326.466C328.102 62.2155 330.587 59.367 333.92 57.2155C337.254 55.0336 341.557 53.9427 346.83 53.9427C351.557 53.9427 355.693 54.9124 359.239 56.8518C362.784 58.7609 365.542 61.67 367.511 65.5791C369.481 69.4579 370.466 74.367 370.466 80.3064V124.67H359.739V81.0336C359.739 75.5488 358.314 71.2761 355.466 68.2155C352.617 65.1245 348.708 63.5791 343.739 63.5791C340.314 63.5791 337.254 64.3215 334.557 65.8064C331.89 67.2912 329.784 69.4579 328.239 72.3064C326.693 75.1548 325.92 78.6094 325.92 82.67Z" fill="url(#paint0_linear_60_40)"/>
<path d="M381 13.67L387.482 31.1878L405 37.67L387.482 44.1522L381 61.67L374.518 44.1522L357 37.67L374.518 31.1878L381 13.67Z" fill="url(#paint1_radial_60_40)"/>
<path d="M424 0.670044L430.482 18.1878L448 24.67L430.482 31.1522L424 48.67L417.518 31.1522L400 24.67L417.518 18.1878L424 0.670044Z" fill="url(#paint2_radial_60_40)"/>
<path d="M24 124.67L30.4822 142.188L48 148.67L30.4822 155.152L24 172.67L17.5178 155.152L0 148.67L17.5178 142.188L24 124.67Z" fill="url(#paint3_radial_60_40)"/>
</g>
<defs>
<linearGradient id="paint0_linear_60_40" x1="213.464" y1="0.670001" x2="215.536" y2="155.67" gradientUnits="userSpaceOnUse">
<stop stop-color="#00843D"/>
<stop offset="1" stop-color="#0EFF7E"/>
</linearGradient>
<radialGradient id="paint1_radial_60_40" cx="0" cy="0" r="1" gradientUnits="userSpaceOnUse" gradientTransform="translate(381 37.67) rotate(90) scale(24)">
<stop stop-color="#008BD9"/>
<stop offset="1" stop-color="#26B1FF"/>
</radialGradient>
<radialGradient id="paint2_radial_60_40" cx="0" cy="0" r="1" gradientUnits="userSpaceOnUse" gradientTransform="translate(424 24.67) rotate(90) scale(24)">
<stop stop-color="#008BD9"/>
<stop offset="1" stop-color="#26B1FF"/>
</radialGradient>
<radialGradient id="paint3_radial_60_40" cx="0" cy="0" r="1" gradientUnits="userSpaceOnUse" gradientTransform="translate(24 148.67) rotate(90) scale(24)">
<stop stop-color="#008BD9"/>
<stop offset="1" stop-color="#26B1FF"/>
</radialGradient>
<clipPath id="clip0_60_40">
<rect width="448" height="172" fill="white" transform="translate(0 0.670044)"/>
</clipPath>
</defs>
</svg>
