<svg width="32" height="32" viewBox="0 0 32 32" fill="none" xmlns="http://www.w3.org/2000/svg">
<path d="M11.5959 28.8304L11.0937 27.9657L11.5959 28.8304ZM10.4939 27.9969L9.50147 27.8741V27.8741L10.4939 27.9969ZM9.62157 23.3341L8.74822 23.8213L8.75426 23.8318L9.62157 23.3341ZM8.30463 20.9734L9.17799 20.4862L9.17194 20.4757L8.30463 20.9734ZM29.0277 18.7061L29.5299 19.5708V19.5708L29.0277 18.7061ZM28.8779 17.3445L29.2876 16.4323L29.2876 16.4323L28.8779 17.3445ZM25.3401 14.2048L24.4664 14.6914L24.4728 14.7025L25.3401 14.2048ZM24.0898 11.9603L24.9635 11.4736L24.9571 11.4625L24.0898 11.9603ZM11.5806 8.55633L12.0828 9.42106L11.5806 8.55633ZM19.8444 28.7204L20.3467 29.5851L19.8444 28.7204ZM1.76688 15.4419C1.84476 15.9887 2.35114 16.3688 2.89791 16.2909C3.44468 16.213 3.82478 15.7067 3.74689 15.1599L1.76688 15.4419ZM4.73336 10.1721C5.02223 9.70136 4.87481 9.08559 4.4041 8.79672C3.93338 8.50785 3.31762 8.65526 3.02875 9.12598L4.73336 10.1721ZM15.9046 1.66842C15.3524 1.6789 14.9133 2.13503 14.9237 2.68721C14.9342 3.2394 15.3903 3.67854 15.9425 3.66807L15.9046 1.66842ZM20.7342 5.25897C21.1638 5.60604 21.7935 5.53913 22.1405 5.10952C22.4876 4.67992 22.4207 4.0503 21.9911 3.70323L20.7342 5.25897ZM11.4864 28.1196C11.6669 26.6591 11.5557 24.6951 10.4889 22.8363L8.75426 23.8318C9.54435 25.2085 9.64627 26.7031 9.50147 27.8741L11.4864 28.1196ZM10.4949 22.8469L9.17792 20.4863L7.43134 21.4606L8.74828 23.8213L10.4949 22.8469ZM29.2876 16.4323C28.2359 15.9599 27.0095 15.1046 26.2074 13.707L24.4728 14.7025C25.5403 16.5626 27.1474 17.6635 28.4683 18.2567L29.2876 16.4323ZM26.2137 13.7181L24.9634 11.4737L23.2162 12.4469L24.4665 14.6914L26.2137 13.7181ZM24.9571 11.4625C22.1485 6.56879 15.9363 4.87011 11.0783 7.6916L12.0828 9.42106C15.9694 7.16372 20.9584 8.51305 23.2225 12.4581L24.9571 11.4625ZM29.5299 19.5708C30.2267 19.1661 30.3845 18.4167 30.3191 17.8842C30.2539 17.3528 29.9396 16.7251 29.2876 16.4323L28.4683 18.2567C28.3967 18.2246 28.3607 18.1805 28.3478 18.1607C28.336 18.1427 28.3346 18.1329 28.334 18.1279C28.3335 18.124 28.3297 18.0923 28.351 18.0386C28.3754 17.977 28.4309 17.8963 28.5254 17.8413L29.5299 19.5708ZM9.17194 20.4757C6.94268 16.5914 8.25608 11.6436 12.0828 9.42106L11.0783 7.6916C6.28745 10.4742 4.66746 16.645 7.43732 21.4712L9.17194 20.4757ZM11.0937 27.9657C11.1909 27.9092 11.2923 27.9013 11.3606 27.912C11.4199 27.9212 11.4457 27.9414 11.448 27.9432C11.4512 27.9458 11.4581 27.9511 11.467 27.9693C11.4768 27.9894 11.4959 28.0423 11.4864 28.1196L9.50147 27.8741C9.41272 28.5919 9.79469 29.1916 10.2214 29.523C10.6483 29.8545 11.3872 30.1081 12.0981 29.6952L11.0937 27.9657ZM28.5254 17.8413L11.0937 27.9657L12.0981 29.6952L29.5299 19.5708L28.5254 17.8413ZM20.6847 23.5457C21.4953 24.9581 20.9727 26.9087 19.3422 27.8557L20.3467 29.5851C22.8278 28.1441 23.8341 25.0154 22.4193 22.5502L20.6847 23.5457ZM19.3422 27.8557C17.7144 28.8011 15.7828 28.2822 14.9747 26.874L13.24 27.8696C14.6573 30.339 17.8629 31.0277 20.3467 29.5851L19.3422 27.8557ZM11.7621 5.11644C12.2808 6.02032 11.9706 7.17337 11.0783 7.6916L12.0828 9.42106C13.9316 8.3473 14.5605 5.97446 13.4967 4.12091L11.7621 5.11644ZM11.0783 7.6916C10.1896 8.20779 9.05038 7.90389 8.53362 7.00347L6.799 7.99901C7.86477 9.85601 10.2305 10.4969 12.0828 9.42106L11.0783 7.6916ZM8.53362 7.00347C8.01486 6.0996 8.32509 4.94655 9.21737 4.42832L8.2129 2.69885C6.36413 3.77262 5.7352 6.14546 6.799 7.99901L8.53362 7.00347ZM9.21737 4.42832C10.1061 3.91213 11.2453 4.21603 11.7621 5.11644L13.4967 4.12091C12.4309 2.2639 10.0652 1.62305 8.2129 2.69885L9.21737 4.42832ZM3.74689 15.1599C3.49707 13.4061 3.83237 11.6402 4.73336 10.1721L3.02875 9.12598C1.86761 11.0181 1.45593 13.259 1.76688 15.4419L3.74689 15.1599ZM15.9425 3.66807C17.7062 3.63461 19.404 4.18435 20.7342 5.25897L21.9911 3.70323C20.2695 2.31238 18.1048 1.62668 15.9046 1.66842L15.9425 3.66807Z" fill="#EEEEEE"/>
</svg>
