<svg width="24" height="24" viewBox="0 0 24 24" fill="none" xmlns="http://www.w3.org/2000/svg">
<path d="M12 9.5999V17.5999M8.40002 13.8907C4.88183 14.484 2.40002 15.9212 2.40002 17.5999C2.40002 19.809 6.69809 21.5999 12 21.5999C17.302 21.5999 21.6 19.809 21.6 17.5999C21.6 15.9212 19.1182 14.484 15.6 13.8907M15.2 5.5999C15.2 7.36721 13.7673 8.7999 12 8.7999C10.2327 8.7999 8.80002 7.36721 8.80002 5.5999C8.80002 3.83259 10.2327 2.3999 12 2.3999C13.7673 2.3999 15.2 3.83259 15.2 5.5999Z" stroke="white" stroke-width="2" stroke-linecap="round" stroke-linejoin="round"/>
<circle cx="12" cy="6" r="3" fill="white"/>
</svg>
