<svg width="24" height="25" viewBox="0 0 24 25" fill="none" xmlns="http://www.w3.org/2000/svg">
<path d="M8.75602 5.00546L10.0271 3.17882C10.214 2.91017 10.5206 2.75 10.8479 2.75H12.653C12.9791 2.75 13.2847 2.90898 13.4719 3.176L14.7297 4.97032M8.75602 5.00546C8.40917 5.50031 7.83262 5.74279 7.22068 5.69956M8.75602 5.00546C8.40748 5.49912 7.83262 5.7448 7.22068 5.69956M7.22068 5.69956L4.97158 5.55836C4.65073 5.53821 4.33977 5.67355 4.13585 5.92208L2.99534 7.31208C2.77914 7.57557 2.71204 7.93104 2.8173 8.25522L3.47315 10.275M3.47315 10.275C3.56207 10.5634 3.57345 10.8723 3.50981 11.164M3.47315 10.275C3.56334 10.5629 3.5743 10.8711 3.50939 11.167M3.50981 11.164C3.44533 11.4523 3.3071 11.7245 3.10185 11.9449M3.50981 11.164L3.50939 11.167M3.10185 11.9449L1.61575 13.5433C1.38735 13.7889 1.29732 14.1327 1.376 14.4588L1.77856 16.127C1.85699 16.452 2.09263 16.7163 2.40653 16.8313L4.44838 17.5797C4.73328 17.6899 4.97941 17.8691 5.16569 18.0949M3.10185 11.9449C3.30836 11.7263 3.44533 11.455 3.50939 11.167M5.16569 18.0949C5.35071 18.3213 5.47672 18.5945 5.52561 18.8904M5.16569 18.0949C5.35239 18.3213 5.47883 18.5938 5.52561 18.8904M5.16569 18.0949L5.16274 18.0916C5.15052 18.0768 5.13745 18.0614 5.12481 18.047M5.52561 18.8904L5.87327 21.0259C5.92654 21.3531 6.13849 21.6327 6.43917 21.7723L8.0671 22.5281C8.35817 22.6632 8.6964 22.6505 8.97646 22.4938L10.8902 21.4231M10.8902 21.4231C11.1553 21.2742 11.4512 21.1995 11.747 21.1991M10.8902 21.4231C10.9952 21.3634 11.1052 21.3157 11.2181 21.2799C11.3897 21.2256 11.5684 21.1988 11.747 21.1991M11.747 21.1991C11.9009 21.1995 12.0547 21.2198 12.2047 21.26C12.3442 21.2974 12.48 21.3518 12.6085 21.4231M11.747 21.1991C12.0442 21.1987 12.3417 21.2734 12.6085 21.4231M12.6085 21.4231L14.612 22.5076C14.8932 22.6599 15.2304 22.6685 15.519 22.5306L17.1391 21.7568C17.4387 21.6137 17.6478 21.3312 17.6971 21.0029L18.0085 18.928M18.0085 18.928C18.0553 18.6305 18.1796 18.3552 18.3642 18.1268M18.0085 18.928C18.0536 18.6298 18.1788 18.3549 18.3642 18.1268M18.3642 18.1268C18.5476 17.9008 18.7907 17.7207 19.074 17.6093M18.3642 18.1268C18.5471 17.8999 18.7895 17.7193 19.074 17.6093M19.074 17.6093L21.1369 16.8008C21.4449 16.6801 21.6733 16.4149 21.7469 16.0925L22.1326 14.4039C22.2061 14.0823 22.1162 13.7452 21.8924 13.5028L20.3973 11.884M20.3973 11.884C20.1883 11.6628 20.0424 11.3985 19.9716 11.1177M20.3973 11.884C20.2991 11.7807 20.2148 11.6677 20.1461 11.548C20.0677 11.412 20.0092 11.2673 19.9716 11.1177M19.9716 11.1177C19.9021 10.8389 19.9063 10.5435 19.9944 10.2575L20.641 8.18487C20.7414 7.86307 20.6729 7.51235 20.4588 7.25196L19.3464 5.89894C19.1401 5.64805 18.8249 5.51298 18.5009 5.5367L16.2776 5.69956M16.2776 5.69956C15.9733 5.72104 15.6741 5.66308 15.4078 5.53839M16.2776 5.69956C15.9729 5.72228 15.6741 5.66385 15.4078 5.53839M15.4078 5.53839C15.1397 5.4121 14.9046 5.2179 14.7297 4.97032M15.4078 5.53839C15.1393 5.41256 14.9037 5.21888 14.7297 4.97032M3.50939 11.167L3.51024 11.1626M15.1359 12.7606C15.1359 14.6256 13.59 16.1374 11.6834 16.1374C9.77677 16.1374 8.23089 14.6256 8.23089 12.7606C8.23089 10.8957 9.77677 9.38386 11.6834 9.38386C13.59 9.38386 15.1359 10.8957 15.1359 12.7606Z" stroke="white" stroke-width="2"/>
</svg>
