<svg width="24" height="25" viewBox="0 0 24 25" fill="none" xmlns="http://www.w3.org/2000/svg">
<path d="M2.40002 5.8998H21.6M9.60002 17.8998V10.6998M14.4 17.8998V10.6998M16.8 22.6998H7.20002C5.87454 22.6998 4.80002 21.6253 4.80002 20.2998V7.0998C4.80002 6.43706 5.33728 5.8998 6.00002 5.8998H18C18.6628 5.8998 19.2 6.43706 19.2 7.0998V20.2998C19.2 21.6253 18.1255 22.6998 16.8 22.6998ZM9.60002 5.8998H14.4C15.0628 5.8998 15.6 5.36255 15.6 4.6998V3.4998C15.6 2.83706 15.0628 2.2998 14.4 2.2998H9.60002C8.93728 2.2998 8.40002 2.83706 8.40002 3.4998V4.6998C8.40002 5.36255 8.93728 5.8998 9.60002 5.8998Z" stroke="#FF0000" stroke-width="2" stroke-linecap="round" stroke-linejoin="round"/>
</svg>
